Coordinates
version=1
nRows=19
nColumns=33
inDegrees=yes

Units are S.I. units (second, meters, Newtons, ...)
Angles are in degrees.

endheader
time	ground_thorax_rot_x	ground_thorax_rot_y	ground_thorax_rot_z	ground_thorax_tx	ground_thorax_ty	ground_thorax_tz	clav_prot_r	clav_elev_r	scapula_abduction_r	scapula_elevation_r	scapula_upward_rot_r	scapula_winging_r	shoulder_elv_r	plane_of_elev_r	axial_rot_r	elbow_flexion_r	pro_sup_r	wrist_flex_r	wrist_dev_r	clav_prot_l	clav_elev_l	scapula_abduction_l	scapula_elevation_l	scapula_upward_rot_l	scapula_winging_l	shoulder_elv_l	plane_of_elev_l	axial_rot_l	elbow_flexion_l	pro_sup_l	wrist_flex_l	wrist_dev_l
      6.07000000	     26.30218031	     32.12290920	     45.80043873	     62.21017023	    773.26491340	    -43.95226068	     13.03653652	     36.14853583	     26.74682336	     45.00000000	    -45.00000000	  -1159.96949154	  -2448.24723034	     22.67844867	    179.99999979	    364.52204319	   -169.49132952	     13.38820505	     11.70985606	    -13.32669165	    -45.00000000	    -36.40713482	     45.00000000	    -45.00000000	  -3498.81519979	   1515.91585659	     25.13469071	     25.74503167	   1791.43014596	     50.00026783	     10.35444362	    -16.26814802
      6.08000000	     26.33079627	     32.06668489	     45.60220987	     60.27617008	    773.03873755	    -43.94679931	     13.15895454	     35.83921821	     26.48626120	     45.00000000	    -45.00000000	  -1159.84787524	  -2448.02072188	     22.57545964	    179.99999979	    364.51316930	   -169.33753661	     13.29346248	     11.67106246	    -13.23859366	    -45.00000000	    -36.32276815	     45.00000000	    -45.00000000	  -3498.95708405	   1516.16464728	     24.95419476	     25.53331729	   1791.46383139	     50.13379746	     10.34204325	    -16.44155592
      6.09000000	     26.57448632	     31.90529460	     45.21967812	     58.29036345	    772.83425013	    -43.93309248	     13.00756267	     36.18120496	     26.49724155	     45.00000000	    -45.00000000	  -1160.10960253	  -2448.04561260	     22.77149953	    179.99999979	    364.66751042	   -169.16653970	     13.36201574	     11.69619291	    -13.23054926	    -45.00000000	    -36.43155931	     45.00000000	    -45.00000000	  -3498.68322697	   1515.89402764	     25.19444916	     25.37316939	   1791.46345900	     50.29063394	     10.34202000	    -16.30196615
      6.10000000	     26.56052396	     31.83188891	     45.10129597	     56.26693810	    772.65417502	    -43.91178623	     13.13356709	     35.66076237	     26.13970484	     45.00000000	    -45.00000000	  -1159.93021685	  -2447.79291521	     22.61814055	    179.99999979	    364.47998348	   -168.98313495	     13.25069630	     11.62805482	    -13.20918935	    -45.00000000	    -36.23014549	     45.00000000	    -45.00000000	  -3498.91345716	   1516.29983264	     24.93357196	     25.11979951	   1791.40649744	     50.39289101	     10.34399988	    -16.57217736
      6.11000000	     26.78458944	     31.59731490	     44.67013952	     54.19738988	    772.49881398	    -43.88372945	     12.93422977	     36.43197857	     26.48334780	     45.00000000	    -45.00000000	  -1160.43390383	  -2448.10902720	     22.83241135	    179.99999979	    364.78844296	   -168.79023751	     13.50281074	     11.75738735	    -13.14977596	    -45.00000000	    -36.67476353	     45.00000000	    -45.00000000	  -3498.39482171	   1515.78032399	     25.28155549	     25.02501511	   1791.59120055	     50.53448336	     10.32473902	    -16.18113960
      6.12000000	     26.62254773	     31.60512573	     44.84035972	     52.08533401	    772.36926176	    -43.84994493	     13.11654567	     35.53588456	     26.12406933	     45.00000000	    -45.00000000	  -1160.00793411	  -2447.76878319	     22.37933882	    179.99999979	    364.66567931	   -168.54279843	     13.23272971	     11.63726304	    -13.11605607	    -45.00000000	    -36.52065033	     45.00000000	    -45.00000000	  -3498.76753531	   1516.36734754	     24.63320178	     24.85457502	   1791.52012983	     50.60258445	     10.25710094	    -16.61649402
      6.13000000	     26.79615827	     31.41802508	     44.49359243	     49.93387401	    772.26734515	    -43.81169675	     12.99199022	     36.05929325	     26.20625145	     45.00000000	    -45.00000000	  -1160.41950542	  -2447.89755584	     22.58907317	    179.99999979	    364.78966625	   -168.31782358	     13.39135636	     11.63521829	    -13.00776925	    -45.00000000	    -36.65360431	     45.00000000	    -45.00000000	  -3498.37857491	   1516.11465877	     24.96490399	     24.77112870	   1791.61272202	     50.72578920	     10.26954721	    -16.39595438
      6.14000000	     26.89989222	     31.24001631	     44.26959685	     47.74614902	    772.19519457	    -43.77012022	     12.99066793	     35.74069949	     25.98826686	     45.00000000	    -45.00000000	  -1160.31376236	  -2447.68255362	     22.54874138	    179.99999979	    364.73412914	   -168.09313350	     13.34394765	     11.66340299	    -13.00989135	    -45.00000000	    -36.54690642	     45.00000000	    -45.00000000	  -3498.44372181	   1516.31039973	     24.81437179	     24.60419002	   1791.58837375	     50.80893159	     10.28105935	    -16.57590346
      6.15000000	     26.98263310	     31.08140719	     44.03461800	     45.52912732	    772.15543345	    -43.72639572	     13.00277817	     35.91210118	     25.94078329	     45.00000000	    -45.00000000	  -1160.51057840	  -2447.69881330	     22.62831832	    179.99999979	    364.82065618	   -167.89749774	     13.39267888	     11.63446968	    -12.91494724	    -45.00000000	    -36.65725375	     45.00000000	    -45.00000000	  -3498.27566215	   1516.25661512	     24.88816677	     24.50777303	   1791.60876836	     50.90998170	     10.27635059	    -16.48840755
      6.16000000	     27.07901855	     30.91302511	     43.79330650	     43.28563788	    772.15105485	    -43.68132921	     12.95174175	     35.77484135	     25.81663985	     45.00000000	    -45.00000000	  -1160.51959887	  -2447.58365746	     22.58715252	    179.99999979	    364.82997195	   -167.70531458	     13.38381581	     11.66129091	    -12.89937975	    -45.00000000	    -36.64044117	     45.00000000	    -45.00000000	  -3498.26235111	   1516.34327892	     24.82784967	     24.36948266	   1791.61169413	     50.98898956	     10.28843846	    -16.58788587
      6.17000000	     27.18256243	     30.75662867	     43.57657996	     41.01832050	    772.18474539	    -43.63562658	     12.95417725	     35.82913215	     25.75587023	     45.00000000	    -45.00000000	  -1160.63588314	  -2447.57771377	     22.61190828	    179.99999979	    364.90633124	   -167.53487682	     13.40598073	     11.66345857	    -12.83178064	    -45.00000000	    -36.70940118	     45.00000000	    -45.00000000	  -3498.12778511	   1516.34248509	     24.80546159	     24.27977879	   1791.61076501	     51.07051822	     10.29192248	    -16.56820908
      6.18000000	     27.27303310	     30.58095872	     43.31379625	     38.73465336	    772.25895535	    -43.59001463	     12.92391698	     35.75376781	     25.63358367	     45.00000000	    -45.00000000	  -1160.68934938	  -2447.48409091	     22.60908027	    179.99999979	    364.92522491	   -167.38123830	     13.41518713	     11.68912480	    -12.79355679	    -45.00000000	    -36.71463263	     45.00000000	    -45.00000000	  -3498.08620974	   1516.40411236	     24.80825451	     24.16873482	   1791.61697242	     51.13608368	     10.31148797	    -16.63279704
      6.19000000	     27.34621376	     30.40749660	     43.10166341	     36.43400354	    772.37527290	    -43.54516816	     12.91902814	     35.76137739	     25.56556563	     45.00000000	    -45.00000000	  -1160.77934836	  -2447.45127153	     22.61072205	    179.99999979	    364.99783601	   -167.24170018	     13.42669128	     11.70346927	    -12.73465687	    -45.00000000	    -36.77743225	     45.00000000	    -45.00000000	  -3498.00273620	   1516.41465899	     24.78025919	     24.06964562	   1791.61127882	     51.19602372	     10.32050142	    -16.63902046
      6.20000000	     27.46445237	     30.22764666	     42.83047622	     34.11414102	    772.53539643	    -43.50174439	     12.88248904	     35.72450151	     25.45021391	     45.00000000	    -45.00000000	  -1160.86091536	  -2447.36937415	     22.63692739	    179.99999979	    364.99845058	   -167.11875509	     13.45019148	     11.74018535	    -12.69205898	    -45.00000000	    -36.77258486	     45.00000000	    -45.00000000	  -3497.90857711	   1516.46548709	     24.79822614	     23.98113622	   1791.62641484	     51.23856087	     10.34790467	    -16.69903014
      6.21000000	     27.52045993	     30.06738911	     42.62618248	     31.78080126	    772.74018935	    -43.46062741	     12.89254846	     35.69645030	     25.36018141	     45.00000000	    -45.00000000	  -1160.92524472	  -2447.33855873	     22.61567390	    179.99999979	    365.06424269	   -167.01038960	     13.45586778	     11.75871206	    -12.62285464	    -45.00000000	    -36.83669238	     45.00000000	    -45.00000000	  -3497.84856570	   1516.49693807	     24.75178526	     23.91035101	   1791.61013205	     51.27317024	     10.35933878	    -16.70541770
      6.22000000	     27.61896047	     29.87095356	     42.37683082	     29.43146753	    772.99120021	    -43.42245712	     12.84851718	     35.68055535	     25.29644060	     45.00000000	    -45.00000000	  -1161.00668430	  -2447.28810565	     22.61755736	    179.99999979	    365.09527983	   -166.92054493	     13.47127367	     11.80426784	    -12.58630575	    -45.00000000	    -36.86263662	     45.00000000	    -45.00000000	  -3497.75839053	   1516.52439444	     24.74752760	     23.83152200	   1791.60563136	     51.29247019	     10.39070707	    -16.75019423
      6.23000000	     27.69188963	     29.69642730	     42.14269825	     27.06787801	    773.28957795	    -43.38785814	     12.84632344	     35.64777922	     25.19204130	     45.00000000	    -45.00000000	  -1161.08102376	  -2447.23623033	     22.62568723	    179.99999979	    365.13085265	   -166.85102591	     13.48224402	     11.84515337	    -12.51732347	    -45.00000000	    -36.90381912	     45.00000000	    -45.00000000	  -3497.68226943	   1516.56578460	     24.73619416	     23.77144660	   1791.59518116	     51.29966144	     10.41753498	    -16.77414167
      6.24000000	     27.79015040	     29.50991759	     41.88498688	     24.69112487	    773.63640611	    -43.35735180	     12.81336370	     35.63190559	     25.11789990	     45.00000000	    -45.00000000	  -1161.16505161	  -2447.18692491	     22.63596597	    179.99999979	    365.16275557	   -166.80011599	     13.49309261	     11.89673608	    -12.46919769	    -45.00000000	    -36.93559294	     45.00000000	    -45.00000000	  -3497.59068743	   1516.60416604	     24.73420907	     23.70990328	   1791.58851514	     51.29308806	     10.45066527	    -16.80775135
      6.25000000	     27.83495264	     29.33210759	     41.67845619	     22.30403357	    774.03237672	    -43.33158946	     12.81563108	     35.58746942	     25.00511244	     45.00000000	    -45.00000000	  -1161.23731798	  -2447.13192779	     22.64152044	    179.99999979	    365.16919500	   -166.76694530	     13.50911351	     11.94101760	    -12.38846783	    -45.00000000	    -36.97962321	     45.00000000	    -45.00000000	  -3497.50749012	   1516.64870134	     24.72030828	     23.66522697	   1791.57914393	     51.27364459	     10.48135503	    -16.82807762
